<?xml version="1.0" standalone="no"?><!DOCTYPE svg PUBLIC "-//W3C//DTD SVG 1.1//EN" "http://www.w3.org/Graphics/SVG/1.1/DTD/svg11.dtd"><svg t="1582418978942" class="icon" viewBox="0 0 1024 1024" version="1.1" xmlns="http://www.w3.org/2000/svg" p-id="10647" xmlns:xlink="http://www.w3.org/1999/xlink" width="64" height="64"><defs><style type="text/css"></style></defs><path d="M884.053333 225.28l-273.066666-167.253333c-58.026667-37.546667-136.533333-37.546667-197.973334 0l-273.066666 167.253333c-54.613333 34.133333-88.746667 95.573333-88.746667 160.426667v252.586666c0 64.853333 34.133333 126.293333 88.746667 160.426667l273.066666 167.253333c30.72 17.066667 64.853333 27.306667 98.986667 27.306667s68.266667-10.24 98.986667-27.306667l273.066666-167.253333c54.613333-34.133333 88.746667-95.573333 88.746667-160.426667v-252.586666c0-64.853333-34.133333-126.293333-88.746667-160.426667zM648.533333 238.933333c10.24 0 17.066667 6.826667 17.066667 17.066667s-6.826667 17.066667-17.066667 17.066667-17.066667-6.826667-17.066666-17.066667 6.826667-17.066667 17.066666-17.066667z m-273.066666 0c10.24 0 17.066667 6.826667 17.066666 17.066667s-6.826667 17.066667-17.066666 17.066667-17.066667-6.826667-17.066667-17.066667 6.826667-17.066667 17.066667-17.066667zM273.066667 614.4c-10.24 0-17.066667-6.826667-17.066667-17.066667s6.826667-17.066667 17.066667-17.066666 17.066667 6.826667 17.066666 17.066666-6.826667 17.066667-17.066666 17.066667z m184.32-109.226667c-3.413333 3.413333-6.826667 6.826667-13.653334 6.826667-3.413333 0-6.826667 0-10.24-3.413333l-273.066666-170.666667c-6.826667-3.413333-10.24-13.653333-3.413334-23.893333 3.413333-6.826667 13.653333-10.24 23.893334-3.413334l273.066666 170.666667c6.826667 3.413333 10.24 13.653333 3.413334 23.893333z m71.68 399.36c0 10.24-6.826667 17.066667-17.066667 17.066667s-17.066667-6.826667-17.066667-17.066667v-307.2c0-10.24 6.826667-17.066667 17.066667-17.066666s17.066667 6.826667 17.066667 17.066666v307.2z m61.44-395.946666c-3.413333 3.413333-6.826667 3.413333-10.24 3.413333-6.826667 0-10.24-3.413333-13.653334-6.826667-3.413333-6.826667-3.413333-17.066667 6.826667-23.893333l273.066667-170.666667c6.826667-6.826667 17.066667-3.413333 20.48 3.413334 3.413333 6.826667 3.413333 17.066667-6.826667 23.893333l-269.653333 170.666667zM716.8 750.933333c-10.24 0-17.066667-6.826667-17.066667-17.066666s6.826667-17.066667 17.066667-17.066667 17.066667 6.826667 17.066667 17.066667-6.826667 17.066667-17.066667 17.066666z m68.266667-136.533333c-10.24 0-17.066667-6.826667-17.066667-17.066667s6.826667-17.066667 17.066667-17.066666 17.066667 6.826667 17.066666 17.066666-6.826667 17.066667-17.066666 17.066667z m68.266666-136.533333c-10.24 0-17.066667-6.826667-17.066666-17.066667s6.826667-17.066667 17.066666-17.066667 17.066667 6.826667 17.066667 17.066667-6.826667 17.066667-17.066667 17.066667z" fill="#333333" p-id="10648"></path></svg>